<svg width="16" height="16" viewBox="0 0 16 16" fill="none" xmlns="http://www.w3.org/2000/svg">
<g transform="translate(0, 6)">
<path id="{p}" d="M2.81641 8.58398Q0.458008 8.56348 0.458008 6.24609L0.458008 4.08594Q0.458008 2.60254 -0.69043 2.54102L-0.69043 1.63184Q0.458008 1.55664 0.458008 0.0595703L0.458008 -2.0459Q0.458008 -4.39062 2.81641 -4.41113L2.81641 -3.41309Q1.64062 -3.38574 1.64062 -1.97754L1.64062 0.121094Q1.64062 1.7002 0.533203 2.0625L0.533203 2.09668Q1.64062 2.43164 1.64062 4.02441L1.64062 6.08887Q1.64062 6.93652 1.91748 7.26807Q2.19434 7.59961 2.81641 7.60645L2.81641 8.58398ZM5.83105 5.11133L5.83105 9.65723L4.49121 9.65723L4.49121 -1.38281L5.83105 -1.38281L5.83105 -0.0771484L5.8584 -0.0771484Q6.74707 -1.56055 8.45605 -1.56055Q9.90527 -1.56055 10.729 -0.54541Q11.5527 0.469727 11.5527 2.17871Q11.5527 4.06543 10.6196 5.21045Q9.68652 6.35547 8.10742 6.35547Q6.65137 6.35547 5.8584 5.11133L5.83105 5.11133ZM5.82422 3.06055Q5.82422 3.9834 6.41895 4.61572Q7.01367 5.24805 7.90918 5.24805Q8.97559 5.24805 9.57715 4.42773Q10.1787 3.60742 10.1787 2.1582Q10.1787 0.93457 9.61816 0.240723Q9.05762 -0.453125 8.08691 -0.453125Q7.0957 -0.453125 6.45996 0.250977Q5.82422 0.955078 5.82422 2.05566L5.82422 3.06055ZM16.2354 2.54102Q15.0869 2.60254 15.0869 4.08594L15.0869 6.24609Q15.0869 8.56348 12.7354 8.58398L12.7354 7.60645Q13.3574 7.59961 13.6377 7.25439Q13.918 6.90918 13.918 6.08887L13.918 4.02441Q13.918 2.43164 15.0254 2.09668L15.0254 2.0625Q13.918 1.7002 13.918 0.121094L13.918 -1.97754Q13.918 -3.37891 12.7354 -3.41309L12.7354 -4.41113Q15.0869 -4.39062 15.0869 -2.0459L15.0869 0.0595703Q15.0869 1.55664 16.2354 1.63184L16.2354 2.54102Z" fill-rule="evenodd" fill="#FE00E4"/>
</g>
</svg>