<?xml version="1.0" encoding="UTF-8" standalone="no"?>
<svg
   viewBox="0 0 24 24"
   fill="none"
   version="1.1"
   id="svg857"
   sodipodi:docname="codeium.svg"
   inkscape:version="1.2.1 (9c6d41e4, 2022-07-14)"
   width="24"
   height="24"
   xmlns:inkscape="http://www.inkscape.org/namespaces/inkscape"
   xmlns:sodipodi="http://sodipodi.sourceforge.net/DTD/sodipodi-0.dtd"
   xmlns="http://www.w3.org/2000/svg"
   xmlns:svg="http://www.w3.org/2000/svg"
   xmlns:rdf="http://www.w3.org/1999/02/22-rdf-syntax-ns#"
   xmlns:cc="http://creativecommons.org/ns#"
   xmlns:dc="http://purl.org/dc/elements/1.1/">
  <metadata
     id="metadata863">
    <rdf:RDF>
      <cc:Work
         rdf:about="">
        <dc:format>image/svg+xml</dc:format>
        <dc:type
           rdf:resource="http://purl.org/dc/dcmitype/StillImage" />
      </cc:Work>
    </rdf:RDF>
  </metadata>
  <defs
     id="defs861">
    <inkscape:path-effect
       effect="powermask"
       id="path-effect1528"
       is_visible="true"
       lpeversion="1"
       uri="#mask-powermask-path-effect1528"
       invert="false"
       hide_mask="false"
       background="true"
       background_color="#ffffffff" />
    <mask
       maskUnits="userSpaceOnUse"
       id="mask-powermask-path-effect1528">
      <rect
         x="3.5"
         y="3.5"
         width="9"
         height="9"
         rx="0.059999999"
         fill="#606060"
         id="rect1526"
         style="fill:#000000;fill-opacity:1;stroke-width:0.03" />
    </mask>
  </defs>
  <sodipodi:namedview
     pagecolor="#ffffff"
     bordercolor="#666666"
     borderopacity="1"
     objecttolerance="10"
     gridtolerance="10"
     guidetolerance="10"
     inkscape:pageopacity="0"
     inkscape:pageshadow="2"
     inkscape:window-width="2437"
     inkscape:window-height="1464"
     id="namedview859"
     showgrid="false"
     inkscape:zoom="27.753941"
     inkscape:cx="13.403502"
     inkscape:cy="7.998864"
     inkscape:window-x="410"
     inkscape:window-y="136"
     inkscape:window-maximized="0"
     inkscape:current-layer="svg857"
     inkscape:pagecheckerboard="true"
     inkscape:document-rotation="0"
     inkscape:showpageshadow="0"
     inkscape:deskcolor="#d1d1d1" />
  <path
     d="m 5.3484119,19.70293 c -1.6493631,0 -2.4740447,-0.824681 -2.4740447,-2.474045 v -3.536516 c 0,-0.617248 -0.3035638,-0.92587 -0.9106912,-0.92587 -0.2226134,0 -0.4098111,-0.07083 -0.5615931,-0.212495 -0.141663,-0.141664 -0.2124946,-0.323802 -0.2124946,-0.546415 0,-0.232732 0.070832,-0.419929 0.2124946,-0.561593 0.151782,-0.141664 0.3389797,-0.212495 0.5615931,-0.212495 0.6071274,0 0.9106912,-0.308622 0.9106912,-0.92587 V 6.7711143 c 0,-1.6493633 0.8246816,-2.4740449 2.4740447,-2.4740449 0.2226134,0 0.4047517,0.07589 0.5464149,0.2276728 0.141663,0.151782 0.2124946,0.3389796 0.2124946,0.5615931 0,0.2226134 -0.070831,0.4047517 -0.2124946,0.5464147 -0.1416632,0.1416631 -0.3238015,0.2124947 -0.5464149,0.2124947 -0.6172464,0 -0.9258694,0.3086231 -0.9258694,0.9258696 v 3.5365167 c 0,0.354159 -0.040476,0.672901 -0.1214253,0.956227 -0.08095,0.283326 -0.2023759,0.531236 -0.3642765,0.743731 0.3238014,0.414871 0.4857021,0.976464 0.4857021,1.68478 v 3.536516 c 0,0.617248 0.308623,0.92587 0.9258694,0.92587 0.2226134,0 0.4047517,0.07083 0.5464148,0.212495 0.1416631,0.141664 0.2124946,0.328861 0.2124946,0.561593 0,0.222613 -0.070831,0.404751 -0.2124946,0.546415 C 5.7531639,19.62704 5.5710256,19.70293 5.3484119,19.70293 Z m 3.029988,-3.308845 c -0.2833261,0 -0.5312366,-0.101185 -0.7437312,-0.303563 C 7.4322928,15.878027 7.331105,15.630117 7.331105,15.34679 c 0,-0.293445 0.1011881,-0.541354 0.3035637,-0.743731 0.2124946,-0.212495 0.4604051,-0.318742 0.7437312,-0.318742 0.293445,0 0.5413555,0.106253 0.7437312,0.318742 0.2023758,0.202377 0.3035639,0.450286 0.3035639,0.743731 0,0.283327 -0.1011854,0.531237 -0.3035639,0.743732 -0.2023757,0.202376 -0.4502862,0.303563 -0.7437312,0.303563 z m 3.6166251,0 c -0.283327,0 -0.531236,-0.101185 -0.743731,-0.303563 -0.202376,-0.212495 -0.303565,-0.460405 -0.303565,-0.743732 0,-0.293445 0.101186,-0.541354 0.303565,-0.743731 0.212495,-0.212495 0.460404,-0.318742 0.743731,-0.318742 0.293445,0 0.541355,0.106253 0.743732,0.318742 0.202374,0.202377 0.303563,0.450286 0.303563,0.743731 0,0.283327 -0.101186,0.531237 -0.303563,0.743732 -0.202377,0.202376 -0.450287,0.303563 -0.743732,0.303563 z m 3.616709,0 c -0.283326,0 -0.531237,-0.101185 -0.74373,-0.303563 -0.202377,-0.212495 -0.303565,-0.460405 -0.303565,-0.743732 0,-0.293445 0.101186,-0.541354 0.303565,-0.743731 0.212493,-0.212495 0.460404,-0.318742 0.74373,-0.318742 0.293445,0 0.541356,0.106253 0.743731,0.318742 0.202376,0.202377 0.303564,0.450286 0.303564,0.743731 0,0.283327 -0.101185,0.531237 -0.303564,0.743732 -0.202375,0.202376 -0.450286,0.303563 -0.743731,0.303563 z m 3.039854,3.308845 c -0.222613,0 -0.404751,-0.07589 -0.546415,-0.227672 -0.141663,-0.141664 -0.212495,-0.323802 -0.212495,-0.546415 0,-0.232732 0.07084,-0.419929 0.212495,-0.561593 0.141664,-0.141664 0.323802,-0.212495 0.546415,-0.212495 0.617246,0 0.92587,-0.308622 0.92587,-0.92587 v -3.536516 c 0,-0.708316 0.161901,-1.269909 0.485701,-1.68478 -0.161901,-0.212495 -0.283326,-0.460405 -0.364276,-0.743731 -0.08096,-0.283326 -0.121428,-0.602068 -0.121428,-0.956227 V 6.7711143 c 0,-0.6172465 -0.308623,-0.9258696 -0.92587,-0.9258696 -0.222613,0 -0.404751,-0.070831 -0.546414,-0.2124947 -0.141664,-0.141663 -0.212495,-0.3238013 -0.212495,-0.5464147 0,-0.2226135 0.07083,-0.4098111 0.212495,-0.5615931 0.141663,-0.1517818 0.323801,-0.2276728 0.546414,-0.2276728 1.649364,0 2.474046,0.8246816 2.474046,2.4740449 v 3.5365167 c 0,0.617248 0.303563,0.92587 0.91069,0.92587 0.222614,0 0.404752,0.07084 0.546415,0.212495 0.151785,0.141664 0.227676,0.328861 0.227676,0.561593 0,0.222613 -0.07589,0.404751 -0.227673,0.546415 -0.141664,0.141664 -0.323802,0.212495 -0.546415,0.212495 -0.607128,0 -0.910691,0.308622 -0.910691,0.92587 v 3.536516 c 0,1.649364 -0.824681,2.474045 -2.474045,2.474045 z"
     fill="#ffffff"
     id="path855"
     style="fill:#6e6e6e;fill-opacity:1;stroke-width:0.0843232" />
</svg>
